<svg width="145" height="19" viewBox="0 0 145 19" fill="none" xmlns="http://www.w3.org/2000/svg">
<path d="M13.4844 9.26953V16.7578C12.375 17.7734 10.1289 18.2812 6.74609 18.2812C6.08203 18.2812 5.49609 18.2539 4.98828 18.1992C4.48828 18.1445 4.02734 18.0742 3.60547 17.9883C3.19141 17.9023 2.83594 17.7578 2.53906 17.5547C2.24219 17.3438 1.98047 17.1328 1.75391 16.9219C1.52734 16.7109 1.34375 16.4062 1.20312 16.0078C1.0625 15.6016 0.945312 15.2109 0.851562 14.8359C0.765625 14.4609 0.699219 13.957 0.652344 13.3242C0.613281 12.6914 0.585938 12.0859 0.570312 11.5078C0.554688 10.9297 0.546875 10.1875 0.546875 9.28125C0.546875 8.50781 0.550781 7.84766 0.558594 7.30078C0.574219 6.75391 0.601562 6.19531 0.640625 5.625C0.6875 5.05469 0.746094 4.58203 0.816406 4.20703C0.894531 3.82422 0.996094 3.44141 1.12109 3.05859C1.25391 2.66797 1.40625 2.35547 1.57812 2.12109C1.75 1.87891 1.96484 1.64062 2.22266 1.40625C2.48047 1.17188 2.76562 0.992188 3.07812 0.867188C3.39844 0.742188 3.76953 0.628906 4.19141 0.527344C4.61328 0.425781 5.07422 0.359375 5.57422 0.328125C6.07422 0.289062 6.64062 0.269531 7.27344 0.269531C7.3125 0.269531 7.37109 0.269531 7.44922 0.269531C7.99609 0.269531 8.41016 0.273438 8.69141 0.28125C8.97266 0.289062 9.35156 0.320312 9.82812 0.375C10.3125 0.421875 10.6836 0.5 10.9414 0.609375C11.1992 0.710938 11.4961 0.867188 11.832 1.07812C12.168 1.28125 12.418 1.53516 12.582 1.83984C12.7461 2.13672 12.8906 2.51562 13.0156 2.97656C13.1406 3.4375 13.2031 3.96875 13.2031 4.57031C13.2031 4.71094 13.1953 4.90625 13.1797 5.15625L11.082 5.55469L10.9531 3.24609C10.9375 2.74609 10.6523 2.42578 10.0977 2.28516C9.54297 2.13672 8.49219 2.0625 6.94531 2.0625C5.89062 2.0625 5.09375 2.12891 4.55469 2.26172C4.01562 2.38672 3.64062 2.58203 3.42969 2.84766C3.21875 3.11328 3.08984 3.50781 3.04297 4.03125C2.97266 5.63281 2.9375 7.27344 2.9375 8.95312C2.9375 10.6406 2.97266 12.2812 3.04297 13.875C3.08203 14.7188 3.14844 15.2656 3.24219 15.5156C3.39062 15.8984 3.73047 16.1562 4.26172 16.2891C4.76172 16.4141 5.63281 16.4766 6.875 16.4766C9.54688 16.4766 11.0273 16.2969 11.3164 15.9375C11.3086 15.1328 11.3047 13.5 11.3047 11.0391H8.35156L8.15234 9.26953H13.4844ZM19.4258 18H17.0469V0.539062H19.4258V18ZM32.8906 2.34375H28.332V18H25.9531V2.34375H21.4883V0.539062H32.8906V2.34375ZM47.4453 18H45.0664V9.98438H37.2617V18H34.8828V0.539062H37.2617V8.13281H45.0664V0.539062H47.4453V18ZM64.3555 0.539062V11.4727C64.3555 12.4102 64.3125 13.2148 64.2266 13.8867C64.1484 14.5586 64.0039 15.1562 63.793 15.6797C63.582 16.1953 63.3164 16.6172 62.9961 16.9453C62.6836 17.2656 62.2695 17.5312 61.7539 17.7422C61.2461 17.9453 60.6758 18.0859 60.043 18.1641C59.4102 18.2422 58.6445 18.2812 57.7461 18.2812C56.8789 18.2812 56.1406 18.2461 55.5312 18.1758C54.9219 18.1055 54.3594 17.9766 53.8438 17.7891C53.3281 17.5938 52.9102 17.3398 52.5898 17.0273C52.2773 16.707 52.0078 16.293 51.7812 15.7852C51.5547 15.2695 51.3945 14.6641 51.3008 13.9688C51.2148 13.2734 51.1719 12.4414 51.1719 11.4727V0.539062H53.5508V11.7773C53.5508 12.4258 53.5508 12.8945 53.5508 13.1836C53.5586 13.4727 53.582 13.8281 53.6211 14.25C53.6602 14.6641 53.7109 14.9492 53.7734 15.1055C53.8359 15.2539 53.9375 15.4414 54.0781 15.668C54.2266 15.8945 54.3906 16.0391 54.5703 16.1016C54.7578 16.1562 55.0117 16.2266 55.332 16.3125C55.6523 16.3984 55.9961 16.4492 56.3633 16.4648C56.7383 16.4727 57.2031 16.4766 57.7578 16.4766C58.4141 16.4766 58.9609 16.457 59.3984 16.418C59.8438 16.3789 60.2305 16.3008 60.5586 16.1836C60.8867 16.0664 61.1367 15.9336 61.3086 15.7852C61.4883 15.6289 61.6289 15.4023 61.7305 15.1055C61.8398 14.8086 61.9102 14.5 61.9414 14.1797C61.9727 13.8594 61.9883 13.4336 61.9883 12.9023L61.9766 0.539062H64.3555ZM80.3984 12.9727C80.3906 13.4648 80.3711 13.8984 80.3398 14.2734C80.3164 14.6406 80.2734 14.9883 80.2109 15.3164C80.1484 15.6445 80.082 15.9219 80.0117 16.1484C79.9414 16.375 79.8281 16.5898 79.6719 16.793C79.5234 16.9883 79.3789 17.1484 79.2383 17.2734C79.0977 17.3906 78.8945 17.5 78.6289 17.6016C78.3711 17.6953 78.1211 17.7656 77.8789 17.8125C77.6367 17.8594 77.3125 17.8984 76.9062 17.9297C76.5078 17.9609 76.1211 17.9805 75.7461 17.9883C75.3789 17.9961 74.9141 18 74.3516 18H68.0938V0.539062H74.7266C75.6094 0.539062 76.3398 0.585938 76.918 0.679688C77.5039 0.765625 78.0195 0.925781 78.4648 1.16016C78.918 1.39453 79.2461 1.72656 79.4492 2.15625C79.6523 2.58594 79.7578 3.13281 79.7656 3.79688L79.7773 5.0625C79.7773 5.59375 79.7578 6.02734 79.7188 6.36328C79.6797 6.69922 79.6094 7.00391 79.5078 7.27734C79.4141 7.55078 79.2695 7.76562 79.0742 7.92188C78.8789 8.07812 78.6406 8.21094 78.3594 8.32031C78.0859 8.42188 77.7305 8.51172 77.293 8.58984C77.8242 8.64453 78.2812 8.76172 78.6641 8.94141C79.0469 9.12109 79.3477 9.33594 79.5664 9.58594C79.793 9.83594 79.9688 10.1523 80.0938 10.5352C80.2188 10.918 80.3008 11.293 80.3398 11.6602C80.3789 12.0273 80.3984 12.4648 80.3984 12.9727ZM77.457 4.55859C77.457 4.54297 77.457 4.51953 77.457 4.48828C77.457 4.16016 77.457 3.92969 77.457 3.79688C77.457 3.65625 77.4336 3.48828 77.3867 3.29297C77.3477 3.08984 77.3047 2.95703 77.2578 2.89453C77.2188 2.83203 77.1211 2.75 76.9648 2.64844C76.8164 2.53906 76.668 2.47656 76.5195 2.46094C76.3711 2.4375 76.1367 2.41016 75.8164 2.37891C75.5039 2.33984 75.1914 2.32031 74.8789 2.32031C74.5664 2.32031 74.1406 2.32031 73.6016 2.32031H70.4492V7.92188H72.8047C73.8281 7.92188 74.6562 7.89453 75.2891 7.83984C75.9219 7.77734 76.3906 7.67578 76.6953 7.53516C77.0078 7.38672 77.2109 7.23047 77.3047 7.06641C77.4062 6.90234 77.457 6.68359 77.457 6.41016V4.55859ZM78.0781 12.4102C78.0625 11.4805 78.0273 10.8945 77.9727 10.6523C77.8633 10.2227 77.5938 9.92969 77.1641 9.77344C76.6328 9.57031 75.4453 9.46484 73.6016 9.45703C73.4766 9.45703 73.3398 9.45703 73.1914 9.45703H70.4492V16.2305H74.9258C75.832 16.2305 76.5156 16.1562 76.9766 16.0078C77.4375 15.8516 77.7422 15.6211 77.8906 15.3164C78.0391 15.0117 78.1094 14.5625 78.1016 13.9688L78.0781 12.4102ZM100.555 12.9727C100.547 13.4648 100.527 13.8984 100.496 14.2734C100.473 14.6406 100.43 14.9883 100.367 15.3164C100.305 15.6445 100.238 15.9219 100.168 16.1484C100.098 16.375 99.9844 16.5898 99.8281 16.793C99.6797 16.9883 99.5352 17.1484 99.3945 17.2734C99.2539 17.3906 99.0508 17.5 98.7852 17.6016C98.5273 17.6953 98.2773 17.7656 98.0352 17.8125C97.793 17.8594 97.4688 17.8984 97.0625 17.9297C96.6641 17.9609 96.2773 17.9805 95.9023 17.9883C95.5352 17.9961 95.0703 18 94.5078 18H88.25V0.539062H94.8828C95.7656 0.539062 96.4961 0.585938 97.0742 0.679688C97.6602 0.765625 98.1758 0.925781 98.6211 1.16016C99.0742 1.39453 99.4023 1.72656 99.6055 2.15625C99.8086 2.58594 99.9141 3.13281 99.9219 3.79688L99.9336 5.0625C99.9336 5.59375 99.9141 6.02734 99.875 6.36328C99.8359 6.69922 99.7656 7.00391 99.6641 7.27734C99.5703 7.55078 99.4258 7.76562 99.2305 7.92188C99.0352 8.07812 98.7969 8.21094 98.5156 8.32031C98.2422 8.42188 97.8867 8.51172 97.4492 8.58984C97.9805 8.64453 98.4375 8.76172 98.8203 8.94141C99.2031 9.12109 99.5039 9.33594 99.7227 9.58594C99.9492 9.83594 100.125 10.1523 100.25 10.5352C100.375 10.918 100.457 11.293 100.496 11.6602C100.535 12.0273 100.555 12.4648 100.555 12.9727ZM97.6133 4.55859C97.6133 4.54297 97.6133 4.51953 97.6133 4.48828C97.6133 4.16016 97.6133 3.92969 97.6133 3.79688C97.6133 3.65625 97.5898 3.48828 97.543 3.29297C97.5039 3.08984 97.4609 2.95703 97.4141 2.89453C97.375 2.83203 97.2773 2.75 97.1211 2.64844C96.9727 2.53906 96.8242 2.47656 96.6758 2.46094C96.5273 2.4375 96.293 2.41016 95.9727 2.37891C95.6602 2.33984 95.3477 2.32031 95.0352 2.32031C94.7227 2.32031 94.2969 2.32031 93.7578 2.32031H90.6055V7.92188H92.9609C93.9844 7.92188 94.8125 7.89453 95.4453 7.83984C96.0781 7.77734 96.5469 7.67578 96.8516 7.53516C97.1641 7.38672 97.3672 7.23047 97.4609 7.06641C97.5625 6.90234 97.6133 6.68359 97.6133 6.41016V4.55859ZM98.2344 12.4102C98.2188 11.4805 98.1836 10.8945 98.1289 10.6523C98.0195 10.2227 97.75 9.92969 97.3203 9.77344C96.7891 9.57031 95.6016 9.46484 93.7578 9.45703C93.6328 9.45703 93.4961 9.45703 93.3477 9.45703H90.6055V16.2305H95.082C95.9883 16.2305 96.6719 16.1562 97.1328 16.0078C97.5938 15.8516 97.8984 15.6211 98.0469 15.3164C98.1953 15.0117 98.2656 14.5625 98.2578 13.9688L98.2344 12.4102ZM112.59 18H103.719V0.539062H106.098V16.207H112.824L112.59 18ZM121.812 18.2812C121.133 18.2812 120.527 18.2656 119.996 18.2344C119.473 18.2031 118.988 18.125 118.543 18C118.098 17.8828 117.715 17.7734 117.395 17.6719C117.082 17.5703 116.797 17.3789 116.539 17.0977C116.289 16.8086 116.082 16.5625 115.918 16.3594C115.754 16.1484 115.613 15.8047 115.496 15.3281C115.379 14.8438 115.293 14.4336 115.238 14.0977C115.184 13.7539 115.137 13.2266 115.098 12.5156C115.066 11.8047 115.047 11.1953 115.039 10.6875C115.039 10.1797 115.039 9.44531 115.039 8.48438C115.039 7.32812 115.07 6.36719 115.133 5.60156C115.195 4.83594 115.316 4.125 115.496 3.46875C115.684 2.8125 115.926 2.29688 116.223 1.92188C116.527 1.54688 116.938 1.22656 117.453 0.960938C117.977 0.6875 118.582 0.503906 119.27 0.410156C119.965 0.308594 120.812 0.257812 121.812 0.257812C122.758 0.257812 123.566 0.304688 124.238 0.398438C124.91 0.492188 125.504 0.660156 126.02 0.902344C126.543 1.13672 126.961 1.43359 127.273 1.79297C127.594 2.14453 127.855 2.60938 128.059 3.1875C128.262 3.76562 128.398 4.41406 128.469 5.13281C128.547 5.84375 128.586 6.71094 128.586 7.73438C128.586 10.625 128.543 12.5273 128.457 13.4414C128.309 15.0039 127.949 16.1211 127.379 16.793C126.777 17.5117 125.754 17.9648 124.309 18.1523C123.621 18.2383 122.789 18.2812 121.812 18.2812ZM123.488 2.10938C123.043 2.07812 122.484 2.0625 121.812 2.0625C121.141 2.0625 120.582 2.07812 120.137 2.10938C119.691 2.14062 119.301 2.20703 118.965 2.30859C118.637 2.41016 118.383 2.52344 118.203 2.64844C118.023 2.77344 117.875 2.96875 117.758 3.23438C117.648 3.49219 117.574 3.75781 117.535 4.03125C117.504 4.30469 117.48 4.67578 117.465 5.14453C117.441 6.58984 117.43 8.04297 117.43 9.50391C117.43 11.707 117.488 13.2148 117.605 14.0273C117.793 15.2461 118.148 15.9492 118.672 16.1367C119.062 16.3633 120.109 16.4766 121.812 16.4766C123.516 16.4766 124.562 16.3633 124.953 16.1367C125.102 16.082 125.234 15.9922 125.352 15.8672C125.477 15.7422 125.578 15.5742 125.656 15.3633C125.742 15.1523 125.816 14.9414 125.879 14.7305C125.941 14.5117 125.992 14.2344 126.031 13.8984C126.07 13.5625 126.102 13.2617 126.125 12.9961C126.148 12.7227 126.164 12.3789 126.172 11.9648C126.18 11.543 126.184 11.1953 126.184 10.9219C126.191 10.6484 126.195 10.2852 126.195 9.83203C126.195 8.25391 126.184 6.69141 126.16 5.14453C126.145 4.67578 126.117 4.30469 126.078 4.03125C126.047 3.75781 125.973 3.49219 125.855 3.23438C125.746 2.96875 125.602 2.77344 125.422 2.64844C125.242 2.52344 124.984 2.41016 124.648 2.30859C124.32 2.20703 123.934 2.14062 123.488 2.10938ZM144.617 9.26953V16.7578C143.508 17.7734 141.262 18.2812 137.879 18.2812C137.215 18.2812 136.629 18.2539 136.121 18.1992C135.621 18.1445 135.16 18.0742 134.738 17.9883C134.324 17.9023 133.969 17.7578 133.672 17.5547C133.375 17.3438 133.113 17.1328 132.887 16.9219C132.66 16.7109 132.477 16.4062 132.336 16.0078C132.195 15.6016 132.078 15.2109 131.984 14.8359C131.898 14.4609 131.832 13.957 131.785 13.3242C131.746 12.6914 131.719 12.0859 131.703 11.5078C131.688 10.9297 131.68 10.1875 131.68 9.28125C131.68 8.50781 131.684 7.84766 131.691 7.30078C131.707 6.75391 131.734 6.19531 131.773 5.625C131.82 5.05469 131.879 4.58203 131.949 4.20703C132.027 3.82422 132.129 3.44141 132.254 3.05859C132.387 2.66797 132.539 2.35547 132.711 2.12109C132.883 1.87891 133.098 1.64062 133.355 1.40625C133.613 1.17188 133.898 0.992188 134.211 0.867188C134.531 0.742188 134.902 0.628906 135.324 0.527344C135.746 0.425781 136.207 0.359375 136.707 0.328125C137.207 0.289062 137.773 0.269531 138.406 0.269531C138.445 0.269531 138.504 0.269531 138.582 0.269531C139.129 0.269531 139.543 0.273438 139.824 0.28125C140.105 0.289062 140.484 0.320312 140.961 0.375C141.445 0.421875 141.816 0.5 142.074 0.609375C142.332 0.710938 142.629 0.867188 142.965 1.07812C143.301 1.28125 143.551 1.53516 143.715 1.83984C143.879 2.13672 144.023 2.51562 144.148 2.97656C144.273 3.4375 144.336 3.96875 144.336 4.57031C144.336 4.71094 144.328 4.90625 144.312 5.15625L142.215 5.55469L142.086 3.24609C142.07 2.74609 141.785 2.42578 141.23 2.28516C140.676 2.13672 139.625 2.0625 138.078 2.0625C137.023 2.0625 136.227 2.12891 135.688 2.26172C135.148 2.38672 134.773 2.58203 134.562 2.84766C134.352 3.11328 134.223 3.50781 134.176 4.03125C134.105 5.63281 134.07 7.27344 134.07 8.95312C134.07 10.6406 134.105 12.2812 134.176 13.875C134.215 14.7188 134.281 15.2656 134.375 15.5156C134.523 15.8984 134.863 16.1562 135.395 16.2891C135.895 16.4141 136.766 16.4766 138.008 16.4766C140.68 16.4766 142.16 16.2969 142.449 15.9375C142.441 15.1328 142.438 13.5 142.438 11.0391H139.484L139.285 9.26953H144.617Z" fill="#3294F8"/>
</svg>
